# xmcd
# Copyright (C) 1995-1998 Ti Kan
#
# Track frame offsets:
#       150
#       26685
#       70055
#       105495
#       130857
#       150820
#       167392
#       194570
#       223005
#       247247
#
# Disc length: 3999 seconds
#
# Revision: 0
# Processed by: cddbd v1.5.2PL0 Copyright (c) Steve Scherf et al.
# Submitted via: CD-Transfer v1.0
#
DISCID=820f9d0a
DTITLE=Sitar Kaasa - Annapurna Group - 
DYEAR=1900
DGENRE=
TTITLE0=Lasataye (Happiness)
TTITLE1=Melody Queen
TTITLE2=Spring
TTITLE3=Sitar Kaasa
TTITLE4=Sinha Jya (Rice Plantation)
TTITLE5=Hathaye Chaya
TTITLE6=Mohani
TTITLE7=Namo Buddha
TTITLE8=Narayan Ju
TTITLE9=Dancing Moon
EXTD=
EXTT0=
EXTT1=
EXTT2=
EXTT3=
EXTT4=
EXTT5=
EXTT6=
EXTT7=
EXTT8=
EXTT9=
PLAYORDER=
